# xmcd
#
# Track frame offsets:
#	150
#	19809
#	39476
#	77361
#	98053
#	119998
#	140833
#	161646
#	182228
#	201325
#	219997
#	258319
#	279726
#	298543
#	317520
#
# Disc length: 4446 seconds
#
# Revision: 1
# Processed by: cddbd v1.5PL3 Copyright (c) Steve Scherf et al.
# Submitted via: EasyCDDAExtractor 6.5.0.3
#
DISCID=e1115c0f
DTITLE=George Thorogood - 30 Years Greatest
DYEAR=2004
DGENRE=Blues
TTITLE0=Move It On Over
TTITLE1=Who Do You Love?
TTITLE2=One Bourbon One Scotch One Beer
TTITLE3=Madison Blues
TTITLE4=Bad To The Bone
TTITLE5=You Talk Too Much
TTITLE6=Jack Hammer
TTITLE7=I Drink Alone
TTITLE8=If You Don't Start Drinking I'm Gonna Leave
TTITLE9=American Blues
TTITLE10=The Sky Is Crying (Live)
TTITLE11=Reelin and Rockin (Live)
TTITLE12=Willie and The Hand Jive
TTITLE13=Get A Haircut
TTITLE14=Rocking My Life Away
EXTD=
EXTT0=
EXTT1=
EXTT2=
EXTT3=
EXTT4=
EXTT5=
EXTT6=
EXTT7=
EXTT8=
EXTT9=
EXTT10=
EXTT11=
EXTT12=
EXTT13=
EXTT14=
PLAYORDER=
